<svg width="150" height="203" viewBox="0 0 150 203" fill="none" xmlns="http://www.w3.org/2000/svg">
<path d="M86.3866 132.631H119.613C132.027 132.631 142.12 138.217 142.12 150.231C142.12 159.537 137.707 165.737 128.72 167.844V168.031C134.72 169.644 135.12 174.937 138.627 183.431L145.427 202.457H126.013L122.013 189.844C118.213 177.857 115.8 174.844 108.893 174.844H104.987V202.471H86.3733V132.631H86.3866ZM105 161.644H109.907C115.907 161.644 123.507 161.431 123.507 153.537C123.507 147.031 117 145.831 109.907 145.831H105V161.644Z" fill="#FF4500"/>
<path d="M35.1598 136.498H0.0131836C4.38652 170.311 31.1598 197.071 64.9598 201.444V166.284C50.3065 162.684 38.7732 151.151 35.1598 136.484" fill="#FF4500"/>
<path d="M75.3867 18.6304C75.0267 18.9904 74.44 18.9904 74.08 18.6304L65.56 10.0971C65.2 9.73706 65.2 9.15039 65.56 8.80372L74.08 0.270391C74.44 -0.0896093 75.0267 -0.0896093 75.3867 0.270391L83.9067 8.80372C84.2667 9.16372 84.2667 9.75039 83.9067 10.0971L75.3867 18.6304Z" fill="#FF4500"/>
<path d="M106.747 55.9373C106.24 56.1373 105.747 56.2173 105.027 56.2173C103.267 56.3506 101.733 55.4439 100.72 54.8573C99.6935 54.2839 98.4135 53.7106 97.1068 53.7106C95.8002 53.7106 94.2935 54.3506 93.4935 54.8573C91.8535 55.8839 91.3068 56.2173 89.8402 56.2173C88.0935 56.3506 86.5602 55.4439 85.5335 54.8573C84.5068 54.2839 83.2268 53.7106 81.9202 53.7106C80.6135 53.7106 79.1068 54.3506 78.3068 54.8573C76.6668 55.8839 76.1202 56.2173 74.6535 56.2173C73.1868 56.2173 72.6402 55.8839 71.0002 54.8573C70.2002 54.3639 68.6935 53.7106 67.3868 53.7106C66.0802 53.7106 64.8002 54.2839 63.7735 54.8573C62.7468 55.4306 61.2268 56.3506 59.4668 56.2173C58.0002 56.2173 57.4535 55.8839 55.8135 54.8573C55.0135 54.3639 53.5202 53.7106 52.2002 53.7106C50.8802 53.7106 49.6135 54.2839 48.5735 54.8573C47.5602 55.4306 46.0268 56.3506 44.2668 56.2173H44.2535C43.5468 56.2173 43.0402 56.1373 42.5335 55.9373L30.4535 38.6839C27.3202 34.2039 28.4002 28.0439 32.8802 24.9106C37.3602 21.7773 43.5202 22.8706 46.6668 27.3506L56.7068 41.6839C59.3735 41.0306 62.0535 40.5373 64.7602 40.1639V32.4039C64.7602 26.9373 69.1868 22.5239 74.6535 22.5239C80.1202 22.5239 84.5468 26.9506 84.5468 32.4039V40.1239C87.2535 40.4706 89.9602 40.9639 92.6268 41.6173L102.64 27.3639C105.773 22.8839 111.947 21.7906 116.413 24.9239C120.893 28.0573 121.973 34.2173 118.84 38.6973L106.76 55.9506L106.747 55.9373Z" fill="#FF4500"/>
<path d="M59.6 62.6975C58.16 62.6975 57.6133 62.3642 55.9733 61.3509C55.1867 60.8575 53.6933 60.2309 52.3867 60.2309C51.08 60.2309 49.8133 60.7909 48.8 61.3509C47.7867 61.9242 46.2667 62.8309 44.52 62.6975H44.4933C43.0533 62.6975 42.5067 62.3642 40.88 61.3509C40.4 61.0442 39.64 60.7109 38.84 60.4842C18.04 71.7642 3.16 92.5242 0 116.978H35.1467C38.76 102.324 50.28 90.7909 64.9467 87.1909V60.8175C64.56 60.9775 64.1867 61.1642 63.8533 61.3509C62.84 61.9242 61.32 62.8309 59.5867 62.6975" fill="#FF4500"/>
<path d="M110.533 60.4572C109.693 60.6839 108.907 61.0439 108.4 61.3505C106.773 62.3639 106.227 62.6972 104.787 62.6972H104.76C103.027 62.8305 101.507 61.9239 100.493 61.3505C99.48 60.7772 98.2134 60.2305 96.9067 60.2305C95.6 60.2305 94.12 60.8572 93.32 61.3505C91.6934 62.3639 91.1467 62.6972 89.6934 62.6972C87.96 62.8305 86.44 61.9239 85.4267 61.3505C85.1334 61.1772 84.8 61.0172 84.4534 60.8572V87.1772C99.12 90.7772 110.653 102.311 114.253 116.964H149.4C146.227 92.4839 131.333 71.7105 110.52 60.4439" fill="#FF4500"/>
</svg>
